<svg xmlns="http://www.w3.org/2000/svg" width="145" height="24.5" viewBox="0 0 290 49"><defs><clipPath id="irhya"><path d="M69.24.07h18.832v42.046H69.24z"/></clipPath><clipPath id="irhyb"><path d="M271.04 3.9h18.952v38.512H271.04z"/></clipPath><clipPath id="irhyc"><path d="M0 6.31h56.643v42.625H0z"/></clipPath></defs><g><g><g><g/><g clip-path="url(#irhya)"><path fill="#221e1f" d="M73.16 18.443h-1.484c-1.604 0-2.436-.824-2.436-2.473v-1.001c0-1.59.832-2.474 2.436-2.474h1.485v-1.413C73.16 1.542 81.656.07 84.746.07h.891c1.604 0 2.435.825 2.435 2.473v1.531c0 1.59-.89 2.297-2.554 2.415-1.841.118-4.812.53-4.812 4.887v1.12h4.04c1.604 0 2.436.883 2.436 2.473v1c0 1.65-.832 2.474-2.436 2.474h-4.04v21.2c0 1.648-.891 2.473-2.496 2.473h-2.613c-1.604 0-2.436-.825-2.436-2.474z"/></g></g><g><path fill="#221e1f" d="M105.654 11.38c9.208 0 16.694 6.537 16.694 15.723 0 9.245-7.486 15.723-16.694 15.723-9.208 0-16.634-6.478-16.634-15.723 0-9.186 7.426-15.723 16.634-15.723m0 25.086c4.931 0 9.03-3.769 9.03-9.363 0-5.536-4.099-9.363-9.03-9.363-4.93 0-8.97 3.827-8.97 9.363 0 5.594 4.04 9.363 8.97 9.363"/></g><g><path fill="#221e1f" d="M127.82 2.783c0-1.59.832-2.473 2.435-2.473h2.615c1.603 0 2.435.883 2.435 2.473v29.385c0 2.944 1.248 3.475 2.377 3.592 1.069.118 1.84.766 1.84 2.12v2.002c0 1.532-.711 2.533-2.494 2.533-4.04 0-9.208-1.06-9.208-9.658z"/></g><g><path fill="#221e1f" d="M144.39 2.783c0-1.59.832-2.473 2.436-2.473h2.614c1.604 0 2.436.883 2.436 2.473v29.385c0 2.944 1.247 3.475 2.376 3.592 1.069.118 1.841.766 1.841 2.12v2.002c0 1.532-.712 2.533-2.494 2.533-4.04 0-9.209-1.06-9.209-9.658z"/></g><g><path fill="#221e1f" d="M175.574 11.38c9.208 0 16.694 6.537 16.694 15.723 0 9.245-7.486 15.723-16.694 15.723-9.208 0-16.634-6.478-16.634-15.723 0-9.186 7.426-15.723 16.634-15.723m0 25.086c4.931 0 9.03-3.769 9.03-9.363 0-5.536-4.099-9.363-9.03-9.363-4.93 0-8.97 3.827-8.97 9.363 0 5.594 4.04 9.363 8.97 9.363"/></g><g><path fill="#221e1f" d="M195.182 14.858c-.475-1.65.356-2.768 2.08-2.768h2.851c1.485 0 2.377.707 2.674 2.179l4.87 17.549c.358 1.59.595 3.18.595 3.18h.119s.237-1.59.653-3.18l5.11-17.55c.296-1.412 1.247-2.12 2.732-2.12h2.258c1.485 0 2.376.708 2.732 2.12l5.05 17.55c.476 1.59.654 3.18.654 3.18h.119s.237-1.59.653-3.18l4.812-17.55c.357-1.471 1.248-2.178 2.733-2.178h2.733c1.782 0 2.554 1.119 2.08 2.768l-7.783 25.204c-.416 1.413-1.367 2.06-2.792 2.06h-3.981c-1.486 0-2.436-.706-2.792-2.12l-4.575-15.015c-.475-1.59-.713-3.24-.713-3.24h-.118s-.298 1.65-.772 3.24l-4.575 15.016c-.356 1.413-1.248 2.12-2.733 2.12h-4.099c-1.426 0-2.317-.648-2.733-2.061z"/></g><g><path fill="#04af4e" d="M243.84 36.994c0-1.59.832-2.414 2.495-2.414h2.614c1.604 0 2.495.824 2.495 2.414v2.65c0 1.65-.891 2.474-2.495 2.474h-2.614c-1.663 0-2.495-.825-2.495-2.474z"/></g><g><path fill="#04af4e" d="M258.45 4.55c0 1.59.832 2.414 2.436 2.414h2.614c1.604 0 2.495-.824 2.495-2.414V2.783c0-1.59-.891-2.473-2.495-2.473h-2.614c-1.604 0-2.436.883-2.436 2.473zm0 35.097c0 1.649.832 2.473 2.436 2.473h2.614c1.604 0 2.436-.824 2.436-2.473V14.56c0-1.59-.832-2.474-2.436-2.474h-2.614c-1.604 0-2.436.884-2.436 2.474z"/></g><g><g/><g clip-path="url(#irhyb)"><path fill="#04af4e" d="M275.08 18.445h-1.604c-1.604 0-2.436-.824-2.436-2.473V14.97c0-1.59.832-2.474 2.496-2.474h1.722V6.373c0-1.59.891-2.473 2.496-2.473h2.376c1.603 0 2.495.883 2.495 2.473v6.124h4.396c1.604 0 2.495.884 2.495 2.474v1c0 1.65-.891 2.474-2.436 2.474h-4.455v11.66c0 4.475 2.792 5.358 4.871 5.594 1.842.177 2.496.766 2.496 2.414v1.826c0 1.767-1.01 2.473-3.09 2.473-5.406 0-11.822-2.885-11.822-11.012z"/></g></g><g><g/><g clip-path="url(#irhyc)"><path fill="#04af4e" d="M55.364 24.582L38.257 7.624c-2.75-2.726-7.453-.795-7.453 3.06v5.923H23c-9.552 0-15.875-3.333-19.846-9.497C2.228 5.675 0 6.292 0 7.994v8.613c0 12.591 10.297 22.798 22.999 22.798h7.805v5.194c0 3.855 4.703 5.786 7.453 3.06L55.364 30.7a4.3 4.3 0 0 0 0-6.12"/></g></g></g></g></svg>